# xmcd
#
# Track frame offsets:
#   150
#   13477
#   27401
#   41241
#   54813
#   69186
#   85482
#   99018
#   113971
#   128121
#   145316
#   157333
#   172946
#   185557
#   197732
#
# Disc length: 2804 seconds
#
# Revision: 0
# Processed by: cddbd v1.5.2PL0 Copyright (c) Steve Scherf et al.
# Submitted via: uFREEDB ActiveX Control 1.5
#
DISCID=d00af20f
DTITLE=Garotos de Ouro - Um chacoaio de vanera
DYEAR=1900
DGENRE=Alternative
TTITLE0=Chinelada
TTITLE1=Nóis é cara cheia
TTITLE2=Um chacoaio de vanera
TTITLE3=Um porre na dureza
TTITLE4=Fogo na roseira
TTITLE5=Eu sei que sou um bagual
TTITLE6=Sacanagem
TTITLE7=Santinho do pau oco
TTITLE8=Bebe leite quem não güenta
TTITLE9=Berço grande dos gaúchos
TTITLE10=Um gaudério de bombacha
TTITLE11=Conte até dez
TTITLE12=Tremer na base
TTITLE13=Homem não vale nada
TTITLE14=Deixa quieto
EXTD=
EXTT0=
EXTT1=
EXTT2=
EXTT3=
EXTT4=
EXTT5=
EXTT6=
EXTT7=
EXTT8=
EXTT9=
EXTT10=
EXTT11=
EXTT12=
EXTT13=
EXTT14=
PLAYORDER=
